<?xml version="1.0" encoding="UTF-8"?>
<svg version="1.1" viewBox="0 0 496 512" xmlns="http://www.w3.org/2000/svg">
 <!--! Font Awesome Pro 6.4.0 by @fontawesome - https://fontawesome.com License - https://fontawesome.com/license (Commercial License) Copyright 2023 Fonticons, Inc. -->
 <path d="M248,8C111.033,8,0,119.033,0,256S111.033,504,248,504,496,392.967,496,256,384.967,8,248,8ZM362.952,176.66c-3.732,39.215-19.881,134.378-28.1,178.3-3.476,18.584-10.322,24.816-16.948,25.425-14.4,1.326-25.338-9.517-39.287-18.661-21.827-14.308-34.158-23.215-55.346-37.177-24.485-16.135-8.612-25,5.342-39.5,3.652-3.793,67.107-61.51,68.335-66.746.153-.655.3-3.1-1.154-4.384s-3.59-.849-5.135-.5q-3.283.746-104.608,69.142-14.845,10.194-26.894,9.934c-8.855-.191-25.888-5.006-38.551-9.123-15.531-5.048-27.875-7.717-26.8-16.291q.84-6.7,18.45-13.7,108.446-47.248,144.628-62.3c68.872-28.647,83.183-33.623,92.511-33.789,2.052-.034,6.639.474,9.61,2.885a10.452,10.452,0,0,1,3.53,6.716A43.765,43.765,0,0,1,362.952,176.66Z"/>
 <path d="m231.09 503.16c-46.969-3.609-89.63-19.024-127.35-46.017-56.932-40.739-93.463-102.99-101.94-173.72-1.5849-13.229-1.5849-41.629 0-54.857 5.545-46.282 22.667-88.374 50.529-124.22 53.009-68.194 137.05-103.88 222.58-94.522 73.361 8.0294 138.97 48.176 179.71 109.97 19.517 29.601 31.646 60.294 37.482 94.854 2.5842 15.301 3.3899 25.128 3.3899 41.343s-0.80573 26.041-3.3899 41.343c-4.7614 28.193-14.66 56.2-28.29 80.045-40.171 70.274-109.3 115.88-189.22 124.84-10.531 1.1805-33.8 1.6802-43.507 0.9343zm91.462-124.05c5.1064-2.6676 9.0745-9.3143 11.572-19.383 2.5693-10.358 16.785-94.088 22.374-131.78 6.2474-42.133 7.5902-55.653 6.1857-62.279-1.1044-5.2108-6.5644-8.6565-13.717-8.6565-8.6982 0-31.172 8.2494-93.602 34.358-35.014 14.643-144.03 61.74-150.66 65.085-7.9884 4.0339-11.071 7.3362-11.075 11.865-5e-3 5.3902 3.6975 7.801 20.348 13.25 40.113 13.126 50.626 13.925 66.106 5.0244 2.6407-1.5184 19.641-12.756 37.778-24.972 53.426-35.985 72.871-48.492 75.396-48.492 1.4052 0 3.404 2.3819 3.404 4.0566 0 1.0534-1.5612 3.1783-4.98 6.7783-8.2483 8.6853-23.461 23.482-39.473 38.394-24.18 22.519-38.591 37.005-40.377 40.589-2.8038 5.6262-1.621 10.809 3.6338 15.922 1.4816 1.4415 15.32 11.133 30.753 21.536 15.433 10.403 32.925 22.27 38.872 26.371 16.193 11.166 21.993 13.823 30.573 14.002 2.7523 0.0578 4.3046-0.31779 6.8841-1.6653z" fill="#0f0" stroke-width=".63054"/>
 <path d="m229.2 502.79c-1.2138-0.14886-5.8956-0.71427-10.404-1.2565-91.053-10.95-169.1-71.821-201.64-157.26-7.124-18.705-11.739-36.891-14.723-58.01-1.6081-11.383-1.6081-49.149 0-60.532 3.1007-21.949 8.0963-41.266 15.736-60.847 3.9075-10.015 13.851-29.856 19.369-38.648 55.949-89.147 158.56-133.32 260.85-112.29 31.53 6.4813 61.512 19.235 88.52 37.654 34.684 23.654 61.986 54.69 81.354 92.481 13.946 27.21 22.054 54.485 25.869 87.015 1.0727 9.1458 1.0732 40.66 6.4e-4 49.813-5.7635 49.192-23.2 91.835-52.596 128.63-41.266 51.654-98.28 83.558-164.57 92.091-7.4092 0.9537-42.508 1.8081-47.77 1.1629zm93.093-123.25c4.9502-2.3964 9.1285-8.8125 11.552-17.739 1.6483-6.0716 5.5917-27.898 12.565-69.548 12.543-74.913 17.574-111.34 16.915-122.45-0.39322-6.626-1.7305-8.9484-6.4952-11.279-7.4877-3.6634-17.578-1.3119-51.046 11.896-30.105 11.881-80.178 32.998-148.78 62.745-57.333 24.86-56.969 24.687-60.849 28.896-2.2891 2.4833-2.5208 3.0465-2.5208 6.1248 0 6.0004 3.1927 7.997 23.33 14.59 20.156 6.5989 31.016 9.2062 40.039 9.613 8.6291 0.38901 12.824-0.39872 19.791-3.7163 2.2932-1.092 21.256-13.418 42.14-27.391 59.098-39.541 71.6-47.531 74.369-47.531 1.5472 0 2.7344 1.6419 2.7344 3.7818 0 1.8534-14.159 16.186-41.931 42.445-24.395 23.067-38.937 37.554-41.706 41.548-2.284 3.2959-2.7726 8.702-1.1041 12.218 2.3194 4.8879 3.7078 5.916 54.432 40.309 28.691 19.453 36.679 24.352 42.181 25.868 4.7621 1.3119 11.243 1.1408 14.384-0.37973z" fill="#fff" stroke-width=".63054"/>
</svg>
