<?xml version="1.0" encoding="UTF-8"?>
<svg version="1.1" viewBox="0 0 512 512" xmlns="http://www.w3.org/2000/svg">
 <!--! Font Awesome Pro 6.4.0 by @fontawesome - https://fontawesome.com License - https://fontawesome.com/license (Commercial License) Copyright 2023 Fonticons, Inc. -->
 <path d="M256 64C150 64 64 150 64 256s86 192 192 192c17.7 0 32 14.3 32 32s-14.3 32-32 32C114.6 512 0 397.4 0 256S114.6 0 256 0S512 114.6 512 256v32c0 53-43 96-96 96c-29.3 0-55.6-13.2-73.2-33.9C320 371.1 289.5 384 256 384c-70.7 0-128-57.3-128-128s57.3-128 128-128c27.9 0 53.7 8.9 74.7 24.1c5.7-5 13.1-8.1 21.3-8.1c17.7 0 32 14.3 32 32v80 32c0 17.7 14.3 32 32 32s32-14.3 32-32V256c0-106-86-192-192-192zm64 192a64 64 0 1 0 -128 0 64 64 0 1 0 128 0z"/>
 <path d="m244.33 511.32c-17.301-0.72266-33.258-3.0799-50.995-7.533-97.102-24.379-172.18-105.21-189.17-203.65-2.8254-16.374-3.4941-24.82-3.4941-44.132s0.6687-27.757 3.4941-44.132c11.011-63.812 47.129-122.16 99.83-161.27 37.904-28.131 82.201-44.95 129.93-49.332 9.7385-0.89416 34.399-0.89416 44.138 0 51.594 4.7372 97.57 23.31 138.72 56.039 10.122 8.0507 30.016 28.018 38.399 38.539 30.931 38.823 48.698 81.574 55.033 132.42 0.95816 7.6904 1.1392 14.077 1.1439 40.348 5e-3 29.984-0.0498 31.461-1.4013 37.558-6.0951 27.495-21.207 49.141-44.297 63.45-24.08 14.922-55.022 18.042-82.175 8.2849-12.019-4.3186-24.04-11.934-33.945-21.503l-6.7693-6.54-5.5556 4.5159c-21.112 17.161-47.17 27.476-72.914 28.862-17.53 0.94381-33.082-1.0387-48.51-6.1838-47.867-15.963-81.844-58.607-86.834-108.98-3.8223-38.586 10.914-77.77 39.347-104.62 19.466-18.383 43.462-30.001 69.945-33.864 11.516-1.6796 29.159-1.279 41.391 0.93978 15.093 2.7376 33.056 10.01 45.921 18.592l5.251 3.5027 1.9325-1.6261c6.422-5.4037 16.822-7.7808 25.84-5.9059 11.837 2.4609 22.193 13.084 24.455 25.086 0.40394 2.1433 0.64356 25.175 0.64944 62.424 0.0103 65.01-0.0807 63.365 3.9202 70.871 1.1035 2.0704 3.6141 5.3721 5.579 7.337 17.022 17.022 46.483 9.8411 53.555-13.054 1.1617-3.7611 1.2518-5.8976 1.2518-29.685 0-27.718-0.52147-35.169-3.5097-50.151-5.5993-28.072-17.369-54.176-35.133-77.921-7.1021-9.4936-24.222-27.178-33.239-34.336-55.803-44.293-130.93-54.293-196.59-26.167-14.24 6.1-31.394 16.398-43.644 26.202-7.207 5.7677-21.059 19.356-27.239 26.719-24.272 28.922-39.325 64.001-43.696 101.83-1.2385 10.717-1.2385 32.798 0 43.515 4.0016 34.628 16.514 65.916 37.69 94.247 7.0638 9.4506 24.104 27.043 33.245 34.322 16.449 13.099 37.299 24.576 57.201 31.488 18.016 6.2568 42.144 10.453 60.396 10.504 3.1212 9e-3 7.4928 0.44435 9.7147 0.96809 16.391 3.8637 27.223 20.521 23.812 36.62-2.467 11.644-10.946 21.032-21.835 24.175-5.455 1.5746-8.4596 1.7528-20.834 1.2359zm27.744-193.11c11.75-3.0438 21.64-8.8327 29.978-17.546 8.0714-8.4349 13.198-17.4 16.165-28.266 1.2706-4.6542 1.4631-6.8118 1.4631-16.394s-0.19256-11.74-1.4631-16.394c-2.9664-10.866-8.0932-19.831-16.165-28.266-8.3-8.6738-18.114-14.447-29.971-17.632-5.2509-1.4102-7.2531-1.6106-16.086-1.6106s-10.835 0.20048-16.086 1.6106c-18.67 5.0141-33.797 17.539-41.938 34.724-4.7997 10.132-5.5896 14.028-5.5896 27.568 0 13.311 0.78272 17.335 5.2099 26.782 3.4408 7.3425 6.489 11.756 12.347 17.878 9.8001 10.242 22.345 16.745 36.652 19.002 6.3621 1.0035 18.715 0.29801 25.484-1.4554z" fill="#fff" stroke-width=".63054"/>
</svg>
