<?xml version="1.0" encoding="UTF-8"?>
<svg version="1.1" viewBox="0 0 496 512" xmlns="http://www.w3.org/2000/svg">
 <!--! Font Awesome Pro 6.4.0 by @fontawesome - https://fontawesome.com License - https://fontawesome.com/license (Commercial License) Copyright 2023 Fonticons, Inc. -->
 <path d="M165.9 397.4c0 2-2.3 3.6-5.2 3.6-3.3.3-5.6-1.3-5.6-3.6 0-2 2.3-3.6 5.2-3.6 3-.3 5.6 1.3 5.6 3.6zm-31.1-4.5c-.7 2 1.3 4.3 4.3 4.9 2.6 1 5.6 0 6.2-2s-1.3-4.3-4.3-5.2c-2.6-.7-5.5.3-6.2 2.3zm44.2-1.7c-2.9.7-4.9 2.6-4.6 4.9.3 2 2.9 3.3 5.9 2.6 2.9-.7 4.9-2.6 4.6-4.6-.3-1.9-3-3.2-5.9-2.9zM244.8 8C106.1 8 0 113.3 0 252c0 110.9 69.8 205.8 169.5 239.2 12.8 2.3 17.3-5.6 17.3-12.1 0-6.2-.3-40.4-.3-61.4 0 0-70 15-84.7-29.8 0 0-11.4-29.1-27.8-36.6 0 0-22.9-15.7 1.6-15.4 0 0 24.9 2 38.6 25.8 21.9 38.6 58.6 27.5 72.9 20.9 2.3-16 8.8-27.1 16-33.7-55.9-6.2-112.3-14.3-112.3-110.5 0-27.5 7.6-41.3 23.6-58.9-2.6-6.5-11.1-33.3 2.6-67.9 20.9-6.5 69 27 69 27 20-5.6 41.5-8.5 62.8-8.5s42.8 2.9 62.8 8.5c0 0 48.1-33.6 69-27 13.7 34.7 5.2 61.4 2.6 67.9 16 17.7 25.8 31.5 25.8 58.9 0 96.5-58.9 104.2-114.8 110.5 9.2 7.9 17 22.9 17 46.4 0 33.7-.3 75.4-.3 83.6 0 6.5 4.6 14.4 17.3 12.1C428.2 457.8 496 362.9 496 252 496 113.3 383.5 8 244.8 8zM97.2 352.9c-1.3 1-1 3.3.7 5.2 1.6 1.6 3.9 2.3 5.2 1 1.3-1 1-3.3-.7-5.2-1.6-1.6-3.9-2.3-5.2-1zm-10.8-8.1c-.7 1.3.3 2.9 2.3 3.9 1.6 1 3.6.7 4.3-.7.7-1.3-.3-2.9-2.3-3.9-2-.6-3.6-.3-4.3.7zm32.4 35.6c-1.6 1.3-1 4.3 1.3 6.2 2.3 2.3 5.2 2.6 6.5 1 1.3-1.3.7-4.3-1.3-6.2-2.2-2.3-5.2-2.6-6.5-1zm-11.4-14.7c-1.6 1-1.6 3.6 0 5.9 1.6 2.3 4.3 3.3 5.6 2.3 1.6-1.3 1.6-3.9 0-6.2-1.4-2.3-4-3.3-5.6-2z"/>
 <g fill="#fff">
  <path d="m164.26 488.96c-43.137-15.652-82.074-43.964-110.25-80.165-29.064-37.341-46.03-79.193-52.227-128.83-1.5395-12.331-1.5225-43.504 0.030773-56.434 7.8862-65.647 37.01-120.11 85.837-160.51 77.636-64.246 195.75-72.733 286.58-20.594 18.718 10.744 34.72 23.11 51.122 39.506 19.481 19.473 33.426 38.656 45.228 62.212 34.109 68.083 33.28 153.56-2.1755 224.29-9.606 19.163-25.576 42.323-38.856 56.348-20.082 21.209-38.325 35.53-61.951 48.637-13.167 7.3039-35.963 16.861-41.919 17.575-5.88 0.70415-11.125-2.1171-13.37-7.1908-1.1445-2.5873-1.1938-4.8223-1.1141-50.464 0.071-40.662-0.0618-48.558-0.89422-53.146-2.1098-11.629-6.1305-20.929-11.797-27.287-2.0706-2.3231-2.8972-3.6684-2.353-3.8292 0.4614-0.13637 4.9532-0.7354 9.9818-1.3312 25.644-3.0383 42.091-7.1878 56.434-14.238 31.506-15.487 46.345-45.163 46.478-92.95 0.0288-10.297-0.20038-13.771-1.2489-18.935-2.8262-13.919-8.4051-24.057-21.865-39.733l-2.1895-2.5498 1.2136-3.8993c5.0802-16.323 4.3945-38.867-1.7368-57.107l-2.3656-7.0371-3.0574-0.59022c-4.049-0.78165-11.979 0.37988-19.516 2.8584-10.22 3.361-29.313 13.142-41.991 21.512l-4.6635 3.0786-7.9474-1.8846c-19.57-4.6408-32.411-6.0552-54.923-6.0496-22.012 6e-3 -35.703 1.5117-54.743 6.0218l-7.7672 1.84-9.2574-5.7222c-11.599-7.1699-29.404-16.05-37.49-18.698-7.8517-2.5716-15.47-3.7071-19.689-2.9346l-3.1527 0.57725-1.6889 4.8228c-0.92891 2.6525-2.4841 8.1837-3.456 12.292-1.677 7.0882-1.765 8.2077-1.7273 21.971 0.0409 14.922 0.27265 16.668 3.684 27.744 0.29199 0.94806-0.75531 2.6337-4.2193 6.7909-9.2773 11.134-14.318 21.014-16.963 33.249-1.2734 5.8899-1.4292 8.3259-1.4116 22.069 0.02289 17.82 1.0324 27.09 4.3744 40.175 10.574 41.399 36.912 60.203 93.92 67.056 6.2424 0.75034 11.727 1.4741 12.189 1.6084 0.54235 0.1578-0.2958 1.5172-2.3711 3.8456-4.4208 4.9601-8.5383 13.532-10.676 22.225-1.1781 4.7914-2.1027 7.2964-2.8469 7.7128-2.7054 1.514-12.307 4.3102-18.164 5.2895-15.665 2.6194-30.2-1.5781-41.272-11.919-3.4146-3.1888-6.4184-6.9636-10.597-13.317-7.6579-11.643-13.315-17.096-22.533-21.722-8.3691-4.2003-15.774-6.0784-21.533-5.4616-9.0387 0.96796-9.7063 5.1758-1.9463 12.268 1.9704 1.8009 4.751 3.8683 6.1791 4.5943 3.7993 1.9314 11.674 10.111 15.729 16.337 1.9416 2.9812 5.1348 8.798 7.0962 12.926 1.9613 4.1281 4.6902 9.8647 6.0641 12.748 5.9931 12.577 19.665 21.228 38.68 24.475 10.306 1.7601 32.931 1.3152 41.746-0.82093l1.4187-0.34377-0.0139 32.068c-0.0129 29.766-0.097 32.249-1.172 34.591-3.1524 6.8649-10.053 8.3137-20.883 4.3842z" stroke-width=".63054"/>
  <g stroke-width=".15764">
   <path d="m88.883 348.68c-2.9455-1.5421-3.4956-4.0074-1.0365-4.6453 2.9155-0.75628 6.2281 2.0038 4.94 4.1162-0.67269 1.1031-2.3681 1.3329-3.9035 0.5291z"/>
   <path d="m100.49 359.58c-2.1359-0.65207-3.7826-2.615-3.9097-4.6605-0.04924-0.79256 9.42e-4 -1.0326 0.30972-1.4815 0.46874-0.68145 1.2906-1.1195 2.1-1.1193 0.87124 1.7e-4 2.4358 0.7726 3.2369 1.5981 1.0264 1.0576 1.478 2.0652 1.487 3.3172 7e-3 0.9585-0.035 1.0985-0.46534 1.5564-0.78071 0.83054-1.7325 1.103-2.7586 0.78976z"/>
   <path d="m110.58 373.97c-2.6483-0.9565-4.6556-4.113-4.1909-6.5901 0.12962-0.69091 0.92482-1.6364 1.6209-1.9272 1.7983-0.75139 4.1022 0.60138 5.4065 3.1746 0.45899 0.90549 0.55996 1.2886 0.6007 2.279 0.041 0.9976-0.01 1.304-0.31527 1.8907-0.65824 1.2652-1.7407 1.6719-3.122 1.173z"/>
   <path d="m123.18 388.36c-2.349-0.63336-4.8878-3.3178-5.1383-5.4332-0.12484-1.054 0.15054-1.7741 0.96587-2.5257 1.1612-1.0703 2.4039-1.1922 4.1529-0.40734 1.108 0.4972 2.7032 2.0493 3.3462 3.2558 0.59474 1.1158 0.81035 2.7649 0.46919 3.5886-0.26609 0.64241-1.1206 1.368-1.8494 1.5704-0.73747 0.20479-1.0347 0.1974-1.9465-0.0484z"/>
   <path d="m140.61 398.07c-0.78185-0.10023-2.6327-0.68337-3.3892-1.0678-1.878-0.95439-2.85-2.719-2.2809-4.1411 0.76998-1.9244 3.7444-2.9228 6.2218-2.0885 4.2406 1.428 5.5246 5.2359 2.2857 6.7785-0.94514 0.45015-1.946 0.63318-2.8374 0.51888z"/>
   <path d="m158.8 400.86c-2.6318-0.43476-4.2066-2.5063-3.3904-4.4598 0.29343-0.70226 1.5365-1.7615 2.4343-2.0743 1.059-0.36896 3.0901-0.55072 4.1862-0.37463 1.6114 0.25886 3.1426 1.2882 3.5589 2.3924 0.27287 0.72377 0.19337 1.7077-0.19341 2.3937-0.43097 0.76435-1.5993 1.5794-2.6936 1.8791-1.0218 0.27988-2.9523 0.40031-3.902 0.24343z"/>
   <path d="m177.18 398.61c-1.4666-0.48775-2.2476-1.1624-2.6073-2.2523-0.73847-2.2376 2.262-5.1084 5.3324-5.1021 2.2325 5e-3 4.5118 1.2298 4.8586 2.6115 0.56811 2.2635-2.2927 4.685-5.7709 4.8847-0.74099 0.0425-1.4176-0.0104-1.8128-0.14181z"/>
  </g>
 </g>
</svg>
