<?xml version="1.0" encoding="UTF-8"?>
<svg version="1.1" viewBox="0 0 448 512" xmlns="http://www.w3.org/2000/svg">
 <!--! Font Awesome Pro 6.4.0 by @fontawesome - https://fontawesome.com License - https://fontawesome.com/license (Commercial License) Copyright 2023 Fonticons, Inc. -->
 <path d="M224.1 141c-63.6 0-114.9 51.3-114.9 114.9s51.3 114.9 114.9 114.9S339 319.5 339 255.9 287.7 141 224.1 141zm0 189.6c-41.1 0-74.7-33.5-74.7-74.7s33.5-74.7 74.7-74.7 74.7 33.5 74.7 74.7-33.6 74.7-74.7 74.7zm146.4-194.3c0 14.9-12 26.8-26.8 26.8-14.9 0-26.8-12-26.8-26.8s12-26.8 26.8-26.8 26.8 12 26.8 26.8zm76.1 27.2c-1.7-35.9-9.9-67.7-36.2-93.9-26.2-26.2-58-34.4-93.9-36.2-37-2.1-147.9-2.1-184.9 0-35.8 1.7-67.6 9.9-93.9 36.1s-34.4 58-36.2 93.9c-2.1 37-2.1 147.9 0 184.9 1.7 35.9 9.9 67.7 36.2 93.9s58 34.4 93.9 36.2c37 2.1 147.9 2.1 184.9 0 35.9-1.7 67.7-9.9 93.9-36.2 26.2-26.2 34.4-58 36.2-93.9 2.1-37 2.1-147.8 0-184.8zM398.8 388c-7.8 19.6-22.9 34.7-42.6 42.6-29.5 11.7-99.5 9-132.1 9s-102.7 2.6-132.1-9c-19.6-7.8-34.7-22.9-42.6-42.6-11.7-29.5-9-99.5-9-132.1s-2.6-102.7 9-132.1c7.8-19.6 22.9-34.7 42.6-42.6 29.5-11.7 99.5-9 132.1-9s102.7-2.6 132.1 9c19.6 7.8 34.7 22.9 42.6 42.6 11.7 29.5 9 99.5 9 132.1s2.7 102.7-9 132.1z"/>
 <g fill="#fff" stroke-width=".63054">
  <path d="m167.09 479.17c-14.219-0.25822-30.818-0.78906-36.887-1.1796-36.183-2.3286-60.568-10.349-81.748-26.888-22.926-17.902-37.594-42.863-43.411-73.873-3.7334-19.904-4.399-38.245-4.3994-121.22-4.7461e-4 -94.184 0.79978-109.05 7.1801-133.37 10.198-38.871 39.198-69.357 77.295-81.257 25.284-7.8975 40.719-8.8794 139.35-8.8646 93.822 0.01405 110.49 0.96008 134.31 7.6222 35.965 10.062 64.4 35.866 77.672 70.487 4.9008 12.784 8.343 30.388 9.6246 49.221 0.35401 5.202 0.98282 28.966 1.3974 52.808 0.78562 45.185 0.0446 118.92-1.3989 139.19-2.9909 42.002-14.28 69.122-38.388 92.224-18.635 17.857-41.358 28.055-71.922 32.278-21.165 2.9244-94.996 4.1595-168.67 2.8214zm131.47-39.685c33.054-1.6817 49.19-4.4543 62.261-10.698 16.129-7.704 27.874-19.261 35.814-35.242 6.3988-12.877 9.4177-30.235 11.042-63.487 0.90581-18.546 0.437-150.21-0.57574-161.7-2.9896-33.911-7.0242-47.822-18.181-62.688-7.2198-9.6198-16.925-17.465-28.234-22.822-12.01-5.6893-29.167-8.725-58.343-10.323-14.901-0.81625-142.34-0.82301-157-0.0083-28.768 1.5983-45.691 4.6367-57.816 10.38-15.981 7.5705-28.181 19.572-35.833 35.252-6.3886 13.091-9.2526 28.767-11.016 60.298-0.80026 14.308-0.8036 141.35-0.0041 155.74 1.5506 27.91 4.2752 44.1 9.4657 56.245 8.8333 20.669 27.135 36.754 48.63 42.738 10.705 2.9803 29.38 5.3282 49.761 6.256 16.227 0.73877 135.73 0.78238 150.03 0.0547z"/>
  <path d="m215.47 370.08c-14.463-1.1024-28.359-4.8797-41.422-11.259-12.952-6.3255-22.44-13.306-32.908-24.212-42.791-44.582-41.898-115.72 2.0053-159.62 51.527-51.527 137.32-42.452 177.12 18.736 23.614 36.298 24.383 84.15 1.9485 121.24-22.383 37.001-63.813 58.394-106.75 55.122zm23.262-40.622c10.232-2.1275 18.367-5.5368 27.045-11.335 16.275-10.874 27.834-27.995 31.772-47.06 4.858-23.519-2.0968-48.347-18.601-66.406-8.0185-8.7735-22.264-17.467-34.117-20.82-19.442-5.4998-41.361-2.7905-58.526 7.2341-36.858 21.526-48.31 69.828-25.06 105.7 11.798 18.204 32.09 30.96 53.458 33.605 6.1662 0.76319 18.141 0.30524 24.029-0.91892z"/>
  <path d="m336.07 161.55c-7.3362-2.5368-13.14-7.6352-16.515-14.508-1.6054-3.2691-1.7626-4.2078-1.7626-10.525 0-6.499 0.12745-7.205 2.0232-11.207 5.3551-11.305 17.981-17.604 29.559-14.747 16.574 4.0902 25.206 21.527 18.232 36.833-1.7632 3.8696-6.9271 9.566-10.641 11.738-6.0217 3.522-14.772 4.5341-20.896 2.4168z"/>
 </g>
</svg>
